<?xml version="1.0" encoding="UTF-8" standalone="no"?>
<!-- Created with Inkscape (http://www.inkscape.org/) -->

<svg
   width="512"
   height="512"
   viewBox="0 0 512 512"
   version="1.1"
   id="svg1"
   xml:space="preserve"
   inkscape:version="1.3.2 (091e20ef0f, 2023-11-25, custom)"
   sodipodi:docname="selfless-self.svg"
   xmlns:inkscape="http://www.inkscape.org/namespaces/inkscape"
   xmlns:sodipodi="http://sodipodi.sourceforge.net/DTD/sodipodi-0.dtd"
   xmlns="http://www.w3.org/2000/svg"
   xmlns:svg="http://www.w3.org/2000/svg"
   xmlns:sketch="http://www.bohemiancoding.com/sketch/ns"><sodipodi:namedview
     id="namedview1"
     pagecolor="#d8d8d8"
     bordercolor="#eeeeee"
     borderopacity="1"
     inkscape:showpageshadow="0"
     inkscape:pageopacity="0"
     inkscape:pagecheckerboard="0"
     inkscape:deskcolor="#505050"
     inkscape:document-units="px"
     inkscape:zoom="1.4142136"
     inkscape:cx="139.65359"
     inkscape:cy="258.09397"
     inkscape:window-width="1894"
     inkscape:window-height="1023"
     inkscape:window-x="13"
     inkscape:window-y="29"
     inkscape:window-maximized="1"
     inkscape:current-layer="layer1" /><defs
     id="defs1"><clipPath
       clipPathUnits="userSpaceOnUse"
       id="clipPath23"><path
         id="path23"
         style="stroke-width:0.1;stroke-linecap:square;paint-order:markers fill stroke;stop-color:#000000"
         d="m 438.25066,553.76374 859.87054,0 v 201.39554 l -859.87054,0 z"
         sodipodi:nodetypes="ccccc" /></clipPath><clipPath
       clipPathUnits="userSpaceOnUse"
       id="clipPath22"><path
         id="path22"
         style="stroke-width:0.1;stroke-linecap:square;paint-order:markers fill stroke;stop-color:#000000"
         d="m 438.25066,553.76374 859.87054,0 v 201.39554 l -859.87054,0 z"
         sodipodi:nodetypes="ccccc" /></clipPath><clipPath
       clipPathUnits="userSpaceOnUse"
       id="clipPath5"><path
         id="path5"
         style="stroke-width:0.1;stroke-linecap:square;paint-order:markers fill stroke;stop-color:#000000"
         d="m 438.25066,553.76374 859.87054,0 v 201.39554 l -859.87054,0 z"
         sodipodi:nodetypes="ccccc" /></clipPath><linearGradient
       id="swatch7"
       inkscape:swatch="solid"><stop
         style="stop-color:#d4d4d4;stop-opacity:1;"
         offset="0"
         id="stop7" /></linearGradient></defs><g
     inkscape:label="Layer 1"
     inkscape:groupmode="layer"
     id="layer1"><g
       id="g36"
       transform="matrix(-2.6275563,2.6275563,-2.6275563,-2.6275563,518.12508,256.00013)"><g
         stroke="none"
         stroke-width="1"
         fill="none"
         fill-rule="evenodd"
         sketch:type="MSPage"
         id="g10"><g
           sketch:type="MSArtboardGroup"
           fill="#000000"
           id="g9"><path
             d="m 35.72,25.4 v 8.16 H 45.8 53.96 64.04 V 25.4 H 53.96 45.8 Z"
             sketch:type="MSShapeGroup"
             id="path1-5"
             style="fill:#ab4642;fill-opacity:1" /><path
             d="m 5,4.999904 v 24.36 4.20024 h 18.24 v -8.16 H 13.16 V 13.159904 H 25.4 v 12.24024 8.16 10.07976 h 8.16 v -10.07976 -8.16 -16.32024 -4.08 z"
             sketch:type="MSShapeGroup"
             id="path2"
             style="fill:#181818;fill-opacity:1" /><path
             d="M 53.96,53.96 V 45.8 35.72 H 45.8 v 10.08 8.16 10.08 h 8.16 z"
             sketch:type="MSShapeGroup"
             id="path3"
             style="fill:#181818;fill-opacity:1" /><path
             d="M 64.04,74.36 V 66.2 H 53.96 45.8 35.72 v 8.16 h 10.08 8.16 z"
             sketch:type="MSShapeGroup"
             id="path4"
             style="fill:#ab4642;fill-opacity:1" /><path
             d="m 45.800024,4.999904 v 14.4 3.84024 h 8.16 v -10.08024 h 12.24 v 12.24024 8.16 10.07976 h 8.16 v -10.07976 -8.16 -16.32024 -4.08 z"
             sketch:type="MSShapeGroup"
             id="path5-3"
             style="fill:#181818;fill-opacity:1" /><path
             d="m 25.399904,56.119976 v 10.08 8.16 20.4 h 4.08 20.40024 4.08 v -18.24 h -8.16024 v 10.08 h -12.24 v -12.24 -8.16 -10.08 z"
             sketch:type="MSShapeGroup"
             id="path6"
             style="fill:#181818;fill-opacity:1" /><path
             d="m 66.199928,56.119976 v 10.08 8.16 20.4 h 4.08 24.48024 v -28.56 h -4.08 -14.16024 v 8.16 h 10.08 v 12.24 h -12.24 v -12.24 -8.16 -10.08 z"
             sketch:type="MSShapeGroup"
             id="path7"
             style="fill:#181818;fill-opacity:1" /><path
             d="m 33.559952,45.799928 h -8.16 -20.4 v 4.08 20.40024 4.08 h 18.24 v -8.16024 h -10.08 v -12.24 h 12.24 8.16 10.08 v -8.16 z"
             sketch:type="MSShapeGroup"
             id="path8"
             style="fill:#ab4642;fill-opacity:1" /><path
             d="m 90.680072,25.400024 h -14.16 v 8.16 h 10.08 v 12.24 h -10.32 -1.92 -8.16024 -10.07976 v 8.16 h 10.07976 8.16024 6 14.4 v -28.56 z"
             sketch:type="MSShapeGroup"
             id="path9"
             style="fill:#ab4642;fill-opacity:1" /></g></g></g></g></svg>
